    <?xml version="1.0" encoding="UTF-8"?>
<svg xmlns="http://www.w3.org/2000/svg" xmlns:xlink="http://www.w3.org/1999/xlink" width="275.478pt" height="41.6009pt" viewBox="0 0 275.478 41.6009" version="1.1">
<defs>
<clipPath id="clip1">
  <path d="M 0 0 L 275.476563 0 L 275.476563 34 L 0 34 Z M 0 0 "/>
</clipPath>
<clipPath id="clip2">
  <path d="M 159 33 L 168 33 L 168 41.601563 L 159 41.601563 Z M 159 33 "/>
</clipPath>
</defs>
<g id="surface1">
<g clip-path="url(#clip1)" clip-rule="nonzero">
<path style=" stroke:none;fill-rule:nonzero;fill:rgb(0%,0%,0%);fill-opacity:1;" d="M 175.046875 11.507813 C 175.046875 14.160156 177.15625 16.949219 180.558594 17.152344 C 181.035156 17.152344 181.371094 16.335938 181.371094 15.726563 C 181.371094 15.589844 181.167969 15.386719 181.035156 15.386719 C 179.265625 15.113281 178.175781 13.277344 178.175781 11.101563 C 178.175781 6.679688 184.160156 2.191406 193.546875 2.191406 C 198.984375 2.191406 204.019531 3.550781 204.019531 8.109375 C 204.019531 11.101563 200.890625 14.636719 196.402344 14.839844 C 195.519531 14.839844 194.972656 15.316406 194.972656 16.199219 C 194.972656 16.609375 195.246094 17.152344 195.652344 17.695313 C 196.945313 19.53125 199.53125 23.273438 200.6875 24.839844 C 201.027344 25.3125 201.296875 25.722656 202.660156 25.722656 C 203.746094 25.722656 204.496094 25.246094 204.496094 24.566406 C 204.496094 24.359375 204.425781 24.15625 204.289063 23.953125 C 202.386719 21.300781 200.347656 18.582031 198.167969 15.929688 C 203.269531 15.25 207.621094 11.714844 207.621094 7.972656 C 207.621094 3.414063 201.636719 0.425781 193.613281 0.425781 C 181.238281 0.425781 175.046875 6.613281 175.046875 11.507813 M 134.984375 7.019531 C 134.984375 6.136719 134.304688 5.457031 133.214844 5.457031 C 131.789063 5.457031 130.90625 6.476563 130.90625 7.359375 C 130.90625 8.382813 131.652344 8.925781 132.605469 8.925781 C 134.101563 8.925781 134.984375 7.972656 134.984375 7.019531 M 46.378906 7.019531 C 46.378906 6.136719 45.695313 5.457031 44.675781 5.457031 C 43.25 5.457031 42.367188 6.476563 42.367188 7.359375 C 42.367188 8.382813 43.046875 8.925781 44.066406 8.925781 C 45.492188 8.925781 46.378906 7.972656 46.378906 7.019531 M 8.226563 25.789063 C 12.714844 25.789063 17.613281 23.882813 19.71875 21.980469 L 12.035156 31.5 C 11.898438 31.570313 11.765625 31.839844 11.765625 32.113281 C 11.765625 32.726563 13.328125 33.203125 14.347656 33.203125 C 14.6875 33.203125 15.09375 32.996094 15.300781 32.726563 L 29.035156 15.042969 C 29.105469 14.910156 29.242188 14.703125 29.242188 14.433594 C 29.242188 13.753906 27.949219 13.277344 27.066406 13.277344 C 26.722656 13.277344 25.976563 13.753906 25.773438 13.957031 L 23.1875 16.8125 C 20.605469 19.667969 15.300781 23.203125 9.113281 23.203125 C 6.253906 23.203125 3.875 21.503906 3.875 17.832031 C 3.875 10.417969 13.054688 2.667969 25.773438 2.667969 C 28.015625 2.667969 30.464844 2.941406 32.234375 3.6875 C 32.234375 3.6875 32.84375 3.960938 33.046875 3.960938 C 33.796875 3.960938 34.339844 2.871094 34.339844 2.261719 C 34.339844 1.988281 34.136719 1.851563 33.933594 1.785156 C 32.574219 1.238281 29.988281 0.425781 26.042969 0.425781 C 14.210938 0.425781 0 7.769531 0 18.308594 C 0 22.933594 2.921875 25.789063 8.226563 25.789063 M 179.875 23.613281 C 179.605469 23.953125 179.671875 24.429688 179.875 24.699219 C 180.148438 25.109375 180.828125 25.515625 181.578125 25.515625 C 182.191406 25.515625 182.527344 25.246094 182.9375 24.769531 C 187.019531 19.941406 191.84375 13.550781 197.488281 6.410156 C 197.761719 6.066406 197.695313 5.59375 197.488281 5.320313 C 197.21875 4.910156 196.539063 4.503906 195.789063 4.503906 C 195.175781 4.503906 194.835938 4.777344 194.429688 5.25 Z M 156.746094 23.816406 C 155.179688 23.816406 154.09375 23.136719 154.09375 21.164063 C 154.09375 17.015625 159.328125 13.753906 163.136719 13.753906 C 165.039063 13.753906 166.0625 14.839844 166.0625 16.609375 C 166.0625 19.941406 161.097656 23.816406 156.746094 23.816406 M 30.667969 25.515625 C 32.84375 25.515625 35.769531 23.953125 37.875 22.863281 C 39.578125 21.980469 42.433594 20.417969 45.085938 18.988281 C 44.066406 20.007813 43.589844 21.300781 43.589844 22.320313 C 43.589844 24.089844 44.675781 25.585938 46.921875 25.585938 C 48.484375 25.585938 50.730469 24.769531 52.90625 23.410156 C 53.992188 22.730469 55.082031 21.914063 56.167969 21.027344 L 55.011719 22.730469 C 54.675781 23.273438 54.46875 23.816406 54.46875 24.15625 C 54.46875 25.175781 55.082031 25.585938 56.101563 25.585938 C 57.800781 25.585938 59.636719 24.839844 61.472656 24.019531 C 64.125 22.933594 69.90625 19.464844 73.238281 17.015625 C 73.238281 17.015625 68.070313 22.863281 67.867188 23.070313 C 67.59375 23.410156 67.390625 23.816406 67.390625 24.15625 C 67.390625 24.972656 68.273438 25.585938 69.496094 25.585938 C 70.925781 25.585938 74.667969 23.070313 78 20.691406 C 81.738281 17.96875 86.292969 14.5 88.199219 14.5 C 88.46875 14.5 88.605469 14.570313 88.605469 14.773438 C 88.605469 15.453125 87.382813 16.609375 86.160156 17.902344 C 86.160156 17.902344 81.601563 22.320313 81.464844 22.527344 C 80.992188 23.070313 80.582031 23.410156 80.582031 24.089844 C 80.582031 24.90625 81.535156 25.585938 82.828125 25.585938 C 84.59375 25.585938 87.179688 24.019531 89.628906 22.796875 C 90.988281 22.117188 97.242188 18.308594 100.507813 16.066406 C 98.398438 18.511719 96.425781 20.960938 96.425781 22.457031 C 96.425781 24.699219 98.195313 25.585938 100.238281 25.585938 C 102.070313 25.585938 105.132813 24.632813 107.105469 23.542969 C 110.164063 21.84375 114.039063 18.71875 115.671875 16.746094 C 116.351563 17.015625 117.167969 17.082031 118.121094 17.082031 C 119.683594 17.082031 121.722656 16.539063 123.21875 15.589844 L 116.828125 22.863281 C 116.488281 23.203125 116.285156 23.679688 116.285156 24.019531 C 116.285156 24.839844 117.03125 25.585938 118.597656 25.585938 C 120.570313 25.585938 123.898438 23.816406 125.941406 22.863281 C 128.796875 21.574219 134.78125 18.105469 138.316406 15.996094 L 132.671875 22.457031 C 132.195313 23 131.992188 23.613281 131.992188 23.882813 C 131.992188 25.039063 133.078125 25.585938 134.441406 25.585938 C 137.976563 25.585938 145.386719 21.914063 151.101563 18.648438 C 150.761719 19.328125 150.625 20.144531 150.625 20.894531 C 150.625 23.542969 152.1875 25.585938 156.269531 25.585938 C 163.203125 25.585938 168.578125 20.484375 168.578125 16.40625 C 168.578125 13.617188 166.875 12.054688 163.410156 12.054688 C 160.144531 12.054688 157.289063 13.277344 154.5 14.910156 C 149.46875 17.765625 141.105469 22.390625 135.734375 23.613281 L 144.027344 14.023438 L 150.148438 14.023438 C 150.964844 14.023438 151.371094 13.480469 151.371094 12.9375 C 151.371094 12.527344 151.035156 12.390625 150.691406 12.390625 L 145.523438 12.390625 L 150.285156 7.019531 C 150.355469 6.886719 150.417969 6.816406 150.417969 6.542969 C 150.417969 6.339844 149.738281 6.066406 148.855469 6.066406 C 147.90625 6.066406 146.75 6.203125 146.203125 6.816406 L 141.445313 12.390625 L 136.414063 12.390625 C 135.527344 12.390625 135.257813 12.9375 135.257813 13.480469 C 135.257813 13.890625 135.460938 14.023438 135.800781 14.023438 L 138.859375 14.023438 C 133.011719 17.359375 124.308594 22.253906 120.160156 23.679688 L 128.730469 13.753906 C 128.863281 13.617188 128.933594 13.550781 128.933594 13.410156 C 128.933594 12.9375 127.84375 12.054688 126.621094 12.054688 C 126.210938 12.054688 126.007813 12.121094 125.738281 12.390625 C 124.035156 13.820313 121.25 15.726563 118.1875 15.726563 C 117.507813 15.726563 117.03125 15.589844 116.691406 15.453125 C 116.964844 14.976563 117.097656 14.433594 117.097656 13.890625 C 117.097656 12.800781 116.625 12.054688 115.332031 12.054688 C 114.175781 12.054688 113.292969 12.867188 113.292969 13.957031 C 113.292969 14.839844 113.632813 15.316406 114.175781 15.859375 C 112.136719 18.308594 108.734375 20.824219 106.152344 22.253906 C 104.792969 23 102.480469 23.679688 101.390625 23.679688 C 100.574219 23.679688 100.03125 23.410156 100.03125 22.527344 C 100.03125 21.367188 102.003906 18.851563 103.566406 16.949219 L 106.355469 13.683594 C 106.628906 13.34375 106.628906 13.140625 106.628906 13.003906 C 106.628906 12.460938 105.742188 12.054688 104.65625 12.054688 C 104.042969 12.054688 103.773438 12.121094 103.226563 12.460938 C 100.441406 14.433594 91.257813 20.484375 84.796875 23.542969 L 92.007813 15.589844 C 92.550781 14.910156 92.890625 14.296875 92.890625 13.753906 C 92.890625 12.730469 92.007813 12.054688 90.648438 12.054688 C 88.742188 12.054688 86.632813 12.800781 83.574219 14.703125 L 71.46875 23.203125 C 73.171875 21.503906 79.902344 13.683594 79.902344 13.683594 C 79.96875 13.617188 80.039063 13.480469 80.039063 13.410156 C 80.039063 12.800781 78.746094 12.121094 77.929688 12.121094 C 77.453125 12.121094 77.113281 12.324219 76.84375 12.597656 C 74.53125 14.433594 63.039063 22.390625 57.664063 23.613281 L 65.960938 13.957031 C 66.03125 13.820313 66.300781 13.480469 66.300781 13.34375 C 66.300781 12.597656 65.148438 12.054688 64.261719 12.054688 C 63.785156 12.054688 63.242188 12.460938 63.039063 12.730469 C 61.066406 15.113281 59.910156 16.335938 58.550781 17.492188 C 56.441406 19.398438 54.265625 21.164063 52.226563 22.320313 C 50.730469 23.136719 49.574219 23.542969 48.484375 23.542969 C 47.804688 23.542969 47.195313 23.136719 47.195313 21.980469 C 47.195313 20.824219 47.804688 19.261719 48.757813 18.242188 C 51.476563 15.179688 56.648438 13.277344 60.316406 13.277344 C 60.726563 13.277344 60.996094 12.867188 60.996094 12.460938 C 60.996094 12.121094 60.726563 11.714844 60.316406 11.714844 C 57.871094 11.714844 54.46875 12.527344 51.410156 13.957031 C 46.71875 16.199219 36.515625 21.914063 32.574219 23.613281 L 41.34375 13.683594 C 41.414063 13.550781 41.480469 13.480469 41.480469 13.410156 C 41.480469 12.800781 40.257813 12.054688 39.304688 12.054688 C 38.828125 12.054688 38.558594 12.121094 38.285156 12.460938 L 29.308594 22.796875 C 28.832031 23.339844 28.5625 23.75 28.5625 24.089844 C 28.5625 24.972656 29.445313 25.515625 30.667969 25.515625 M 275.476563 7.019531 C 275.476563 6.136719 274.867188 5.457031 273.777344 5.457031 C 272.347656 5.457031 271.464844 6.476563 271.464844 7.359375 C 271.464844 8.382813 272.210938 8.925781 273.164063 8.925781 C 274.660156 8.925781 275.476563 7.972656 275.476563 7.019531 M 213.324219 25.585938 C 218.628906 25.585938 222.296875 22.050781 223.660156 19.058594 C 224.339844 19.398438 225.632813 19.398438 225.96875 19.398438 C 228.011719 19.398438 230.730469 18.242188 232.703125 16.472656 C 232.769531 18.171875 233.449219 20.417969 233.519531 21.574219 L 233.519531 22.050781 C 233.382813 23.476563 232.160156 23.953125 230.9375 23.953125 C 228.691406 23.953125 228.148438 22.933594 227.332031 22.320313 C 226.992188 22.050781 226.789063 21.980469 226.515625 21.980469 C 226.039063 21.980469 225.496094 22.457031 225.496094 23 C 225.496094 23.273438 225.632813 23.542969 225.769531 23.679688 C 226.582031 24.632813 228.351563 25.585938 230.527344 25.585938 C 236.445313 25.585938 243.789063 19.667969 247.460938 16.746094 C 247.664063 16.609375 247.867188 16.472656 248.003906 16.335938 C 248.140625 17.902344 248.75 20.621094 248.75 21.707031 C 248.75 23.273438 247.800781 23.953125 246.441406 23.953125 C 244.128906 23.953125 243.039063 22.796875 242.359375 22.050781 C 242.292969 21.914063 242.15625 21.84375 241.953125 21.84375 C 241.476563 21.84375 240.726563 22.320313 240.726563 22.933594 C 240.726563 23.070313 240.796875 23.273438 240.929688 23.476563 C 241.679688 24.566406 243.855469 25.585938 246.03125 25.585938 C 248.207031 25.585938 250.519531 24.90625 252.902344 23.816406 C 256.710938 22.117188 260.246094 19.871094 263.371094 17.765625 C 263.507813 17.628906 260.515625 21.097656 259.90625 21.777344 C 259.5625 22.117188 258.816406 23.070313 258.816406 23.75 C 258.816406 24.359375 259.222656 25.246094 260.652344 25.246094 C 264.527344 25.039063 269.359375 22.59375 272.007813 21.164063 C 272.210938 21.027344 272.621094 20.824219 272.621094 20.554688 C 272.621094 20.144531 272.347656 19.601563 271.871094 19.601563 C 271.464844 19.601563 270.921875 19.941406 270.511719 20.144531 C 267.929688 21.4375 265.753906 22.59375 262.148438 23.613281 L 270.921875 13.683594 C 270.988281 13.550781 271.058594 13.480469 271.058594 13.410156 C 271.058594 12.867188 269.902344 12.121094 269.152344 12.121094 C 268.542969 12.121094 267.996094 12.257813 267.519531 12.730469 C 263.441406 16.40625 256.84375 20.621094 251.675781 22.796875 C 251.878906 22.390625 252.015625 21.84375 252.015625 21.300781 C 252.015625 20.078125 251.199219 16.066406 251.199219 16.066406 C 250.996094 14.5 252.425781 13.820313 253.648438 13.820313 C 254.261719 13.820313 254.804688 13.957031 255.347656 14.160156 C 255.621094 14.230469 256.027344 14.363281 256.164063 14.363281 C 256.710938 14.363281 257.117188 13.890625 257.117188 13.410156 C 257.117188 13.140625 257.046875 13.003906 256.777344 12.800781 C 256.164063 12.390625 255.347656 12.054688 253.785156 12.054688 C 251.132813 12.054688 249.566406 12.9375 248.140625 14.363281 C 245.691406 16.675781 240.59375 20.554688 236.445313 22.527344 C 236.578125 22.117188 236.714844 21.640625 236.714844 21.097656 C 236.648438 19.125 235.832031 16.675781 235.832031 15.726563 C 235.832031 14.433594 236.917969 13.890625 238.078125 13.890625 C 239.230469 13.890625 240.117188 14.296875 240.726563 14.296875 C 241.273438 14.296875 241.613281 13.820313 241.613281 13.277344 C 241.613281 12.9375 241.339844 12.730469 241 12.597656 C 240.25 12.324219 239.4375 12.054688 237.871094 12.054688 C 236.035156 12.054688 234.402344 12.800781 233.179688 14.09375 C 231.410156 15.859375 228.757813 17.902344 226.109375 17.902344 C 225.359375 17.902344 224.75 17.832031 224.339844 17.628906 C 224.40625 17.289063 224.542969 16.949219 224.542969 16.609375 L 224.542969 16.066406 C 224.476563 15.042969 224 14.09375 222.707031 14.09375 C 221.621094 14.09375 220.871094 14.910156 220.871094 16.066406 C 220.871094 17.015625 221.347656 17.832031 222.09375 18.375 C 220.667969 21.914063 217.605469 23.816406 213.9375 23.816406 C 212.304688 23.816406 211.011719 23 210.875 20.691406 C 211.148438 16.066406 215.972656 13.683594 220.121094 13.617188 C 220.464844 13.617188 220.734375 13.550781 220.941406 13.480469 C 221.277344 13.410156 221.550781 13.277344 221.621094 12.9375 C 221.621094 12.730469 221.621094 12.597656 221.550781 12.390625 C 221.484375 12.1875 221.347656 12.054688 221.144531 11.917969 C 220.734375 11.714844 220.328125 11.714844 219.648438 11.714844 C 213.867188 11.714844 207.476563 15.589844 207.476563 20.824219 C 207.476563 23.410156 209.3125 25.585938 213.324219 25.585938 "/>
</g>
<path style=" stroke:none;fill-rule:nonzero;fill:rgb(0%,0%,0%);fill-opacity:1;" d="M 117.957031 40.835938 L 117.957031 33.4375 L 116.101563 33.4375 C 114.449219 36.667969 113.882813 37.609375 112.964844 39.570313 C 111.976563 37.523438 110.835938 35.484375 109.738281 33.4375 L 107.914063 33.4375 L 107.914063 40.835938 L 109.125 40.835938 C 109.125 37.253906 109.109375 36.078125 109.050781 34.351563 C 110.054688 36.488281 111.300781 38.679688 112.425781 40.835938 L 113.460938 40.835938 C 115.648438 36.625 115.949219 36.089844 116.820313 34.316406 C 116.746094 35.859375 116.761719 37.304688 116.746094 40.835938 Z M 122.890625 33.4375 L 121.796875 33.4375 L 121.796875 40.835938 L 122.890625 40.835938 Z M 132.335938 40.835938 L 132.335938 40.019531 L 127.683594 40.019531 L 127.683594 33.4375 L 126.589844 33.4375 L 126.589844 40.835938 Z M 144.582031 40.835938 L 140.734375 33.4375 L 139.40625 33.4375 L 135.425781 40.835938 L 136.769531 40.835938 L 137.757813 38.847656 L 142.234375 38.847656 L 143.226563 40.835938 Z M 138.152344 38.082031 C 139.421875 35.578125 139.742188 34.945313 140.019531 34.382813 C 140.617188 35.617188 141.242188 36.84375 141.871094 38.082031 Z M 155.476563 40.835938 L 155.476563 33.4375 L 154.257813 33.4375 C 154.257813 35.953125 154.273438 38.199219 154.300781 39.644531 C 152.761719 37.832031 150.585938 35.460938 148.765625 33.4375 L 147.3125 33.4375 L 147.3125 40.835938 L 148.515625 40.835938 C 148.515625 37.261719 148.5 35.15625 148.472656 34.652344 C 150.175781 36.59375 152.1875 38.773438 154.050781 40.835938 Z M 155.476563 40.835938 "/>
<g clip-path="url(#clip2)" clip-rule="nonzero">
<path style=" stroke:none;fill-rule:nonzero;fill:rgb(0%,0%,0%);fill-opacity:1;" d="M 160.386719 37.027344 C 160.386719 35.101563 161.566406 33.933594 163.394531 33.933594 C 165.183594 33.933594 166.335938 35.164063 166.335938 37.191406 C 166.335938 39.144531 165.199219 40.320313 163.449219 40.320313 C 161.59375 40.320313 160.386719 39.066406 160.386719 37.027344 M 167.566406 37.191406 C 167.566406 35.980469 167.160156 34.921875 166.390625 34.152344 C 165.671875 33.449219 164.695313 33.097656 163.421875 33.097656 C 160.820313 33.097656 159.171875 34.636719 159.171875 37.0625 C 159.171875 38.460938 159.738281 39.683594 160.753906 40.410156 C 161.5 40.949219 162.324219 41.179688 163.476563 41.179688 C 165.996094 41.179688 167.566406 39.648438 167.566406 37.191406 "/>
</g>
</g>
</svg>
