<?xml version="1.0" encoding="UTF-8" standalone="no"?>
<svg
   width="123"
   height="13"
   viewBox="0 0 123 13"
   fill="none"
   version="1.1"
   id="svg4"
   xmlns="http://www.w3.org/2000/svg"
   xmlns:svg="http://www.w3.org/2000/svg">
  <defs
     id="defs8" />
  <path
     d="M 116.1368,0.20870142 V 12.791294 H 123 v -1.165947 h -4.85697 V 6.9956763 h 4.50475 V 5.8638452 h -4.50475 v -4.4912 H 123 V 0.20669864 h -6.8632 z M 112.93384,9.911546 c 0,-1.3024084 -0.49229,-2.2636621 -2.00623,-3.2911399 -0.73947,-0.513739 -1.51395,-1.0294847 -2.32344,-1.5773391 -1.05667,-0.7204386 -1.54896,-1.1659465 -1.54896,-2.0569625 0,-1.0294846 0.59734,-1.8522676 1.86617,-1.8522676 1.26882,0 1.90118,0.7886675 1.90118,2.1934224 v 0.9251314 h 2.04124 V 3.6342985 C 112.8638,1.0274748 110.85757,0 108.92138,0 c -2.07627,0 -3.87034,1.268292 -3.87034,3.291137 0,1.268293 0.63442,2.1251934 1.86617,2.9820939 0.66943,0.445508 1.68902,1.1318311 2.28842,1.5432236 1.01959,0.6863231 1.75905,1.200062 1.75905,2.2636625 0,1.200062 -0.80949,1.818154 -2.04124,1.818154 -1.26677,0 -1.9362,-0.78867 -1.9362,-2.159309 V 8.402438 h -2.04125 v 1.029485 c 0,2.536586 2.04125,3.56607 3.97745,3.56607 2.04124,0 4.0104,-1.131831 4.0104,-3.086447 z M 99.666766,9.740969 c 0,1.336524 -0.634413,2.125193 -1.866164,2.125193 -1.231751,0 -1.866164,-0.788669 -1.866164,-2.125193 V 3.2610351 c 0,-1.3365239 0.634413,-2.1251955 1.866164,-2.1251955 1.231751,0 1.866164,0.7886716 1.866164,2.1251955 z M 101.77805,9.431923 V 3.5680744 c 0,-2.536584 -2.00623,-3.56607182 -3.977448,-3.56607182 -1.971213,0 -3.977443,1.02948782 -3.977443,3.56607182 V 9.431923 c 0,2.536586 2.00623,3.56607 3.977443,3.56607 1.971218,0 3.977448,-1.029484 3.977448,-3.56607 z M 79.396432,6.0023139 h -3.977443 v 1.0294847 h 1.866164 V 9.740969 c 0,1.336524 -0.634414,2.125193 -1.866164,2.125193 -1.231751,0 -1.866165,-0.788669 -1.866165,-2.125193 V 3.2610351 c 0,-1.3365239 0.634414,-2.1251955 1.866165,-2.1251955 1.23175,0 1.866164,0.7886716 1.866164,2.1251955 v 0.6522076 h 2.111279 V 3.5700812 c 0,-2.536588 -2.00623,-3.56606982 -3.977443,-3.56606982 -1.971214,0 -3.977443,1.02948182 -3.977443,3.56606982 V 9.433929 c 0,2.536586 2.006229,3.566071 3.977443,3.566071 1.971213,0 3.977443,-1.029485 3.977443,-3.566071 z M 88.47596,9.740969 c 0,1.336524 -0.634414,2.125193 -1.866165,2.125193 -1.231751,0 -1.866164,-0.788669 -1.866164,-2.125193 V 3.2610351 c 0,-1.3365239 0.634413,-2.1251955 1.866164,-2.1251955 1.231751,0 1.866165,0.7886716 1.866165,2.1251955 z M 90.587238,9.431923 V 3.5680744 c 0,-2.536584 -2.006229,-3.56607182 -3.977443,-3.56607182 -1.971213,0 -3.977443,1.02948782 -3.977443,3.56607182 V 9.431923 c 0,2.536586 2.00623,3.56607 3.977443,3.56607 1.971214,0 3.977443,-1.029484 3.977443,-3.56607 z M 36.002961,1.306417 c 1.196735,0 1.866165,0.7886716 1.866165,2.09108 v 6.20701 c 0,1.302408 -0.66943,2.091078 -1.866165,2.091078 H 34.10178 V 1.306417 Z m 0,11.484877 c 1.971213,0 3.977443,-1.029485 3.977443,-3.566071 V 3.7727672 c 0,-2.5365859 -2.00623,-3.56606856 -3.977443,-3.56606856 H 31.990502 V 12.789287 h 4.012459 z M 61.587539,0.20870142 H 60.425821 V 9.945662 L 55.393768,0.20870142 H 53.247473 V 12.791294 h 1.196735 V 2.7452894 l 5.174177,10.0460046 h 1.971214 V 0.20870142 Z M 7.9548819,6.0023139 H 3.9774389 V 7.0317986 H 5.8436032 V 9.740969 c 0,1.336524 -0.6344135,2.125193 -1.8661643,2.125193 -1.2317509,0 -1.8661644,-0.788669 -1.8661644,-2.125193 V 3.2610351 c 0,-1.3365239 0.6344135,-2.1251955 1.8661644,-2.1251955 1.2317508,0 1.8661643,0.7886716 1.8661643,2.1251955 V 3.9132427 H 7.9548819 V 3.5700812 c 0,-2.536588 -2.0062297,-3.56606982 -3.977443,-3.56606982 C 2.0062255,0.00401138 0,1.0334932 0,3.5700812 V 9.433929 C 0,11.970515 2.0062255,13 3.9774389,13 5.9486522,13 7.9548819,11.970515 7.9548819,9.433929 Z M 17.03441,9.740969 c 0,1.336524 -0.634414,2.125193 -1.866164,2.125193 -1.231751,0 -1.866165,-0.788669 -1.866165,-2.125193 V 3.2610351 c 0,-1.3365239 0.634414,-2.1251955 1.866165,-2.1251955 1.23175,0 1.866164,0.7886716 1.866164,2.1251955 z M 19.145689,9.431923 V 3.5680744 c 0,-2.536584 -2.00623,-3.56607182 -3.977443,-3.56607182 -1.971214,0 -3.977443,1.02948782 -3.977443,3.56607182 V 9.431923 c 0,2.536586 2.006229,3.56607 3.977443,3.56607 1.971213,0 3.977443,-1.029484 3.977443,-3.56607 z M 43.218385,0.20870142 V 12.791294 h 6.8632 V 11.625347 H 45.224614 V 6.9956763 h 4.504748 V 5.8638452 h -4.504748 v -4.4912 h 4.856971 V 0.20669864 h -6.8632 z m -20.834716,0 V 12.791294 h 6.968249 v -1.165947 h -4.85697 V 0.20669864 h -2.111279 z"
     fill="#000000"
     id="path2"
     style="stroke-width:0.203311" />
</svg>
