<svg width="222" height="54" viewBox="0 0 222 54" fill="none" xmlns="http://www.w3.org/2000/svg">
<path d="M29.4598 5.35944C29.8169 4.39424 30.1427 3.4735 30.1427 2.52736V2.48926H37.943V2.62261C36.8591 2.9274 36.5521 4.27359 36.5521 5.30229L39.5219 27.6605C39.7913 29.7877 40.0169 31.0132 41.8088 32.2959V32.4293H33.1187V32.2959C34.6913 31.8006 34.9733 30.4291 34.9733 28.8924L32.3982 6.94692L22.3173 33.0198C20.0555 31.299 19.4352 30.0544 18.345 27.5144L9.77405 6.98502L7.19273 26.5556C6.84187 29.3369 6.52234 31.3434 8.65255 32.2896V32.4229H1.29077V32.2896C3.2017 30.6068 3.45858 28.3717 3.82197 25.9206L6.3845 6.85168C6.57872 5.57533 7.06116 3.7529 4.99359 2.61626V2.48926H12.8942V2.53371C12.8942 3.26395 13.2638 3.9434 13.527 4.59109L21.9915 24.6506L29.4598 5.35944Z" fill="black"/>
<path d="M61.1813 1.70812C51.7394 1.48587 44.2961 8.71212 44.2961 17.3544C44.2961 26.6825 51.8334 33.1404 60.7489 33.1404C69.6959 33.1404 77.3145 26.4094 77.3145 17.1322C77.3145 8.94706 70.6482 1.66367 61.1813 1.70812ZM60.8868 4.97834C67.9917 4.97834 72.1769 11.3981 72.1769 18.0338C72.1769 24.8156 67.81 29.8765 60.962 29.8765C53.9009 29.8765 49.4463 23.317 49.4463 16.948C49.44 10.071 53.8947 4.97834 60.8868 4.97834Z" fill="black"/>
<path d="M86.9756 26.5111C86.9756 29.0575 86.9442 30.8862 89.3188 32.2896V32.4229H81.343V32.2896C83.7364 30.8799 83.7364 29.0575 83.7364 26.5111V8.36931C83.7364 5.81028 83.7364 3.97515 81.3994 2.61626V2.48926H87.978V2.53371C88.1472 3.08615 88.3414 3.3084 88.6484 3.68305L89.2749 4.58474L105.772 25.5967V8.36931C105.772 5.81028 105.809 3.97515 103.428 2.61626V2.48926H111.36V2.62261C109.005 3.9815 109.005 5.81028 109.005 8.37566V33.8961C105.809 32.8103 104.399 31.3053 102.438 28.7146L86.9693 8.91541V26.5111H86.9756Z" fill="black"/>
<path d="M138.715 8.13438C136.24 6.55324 133.352 5.56265 130.388 5.56265C124.173 5.56265 119.844 10.1473 119.844 16.7386C119.844 23.4251 124.348 29.3813 131.284 29.3813C134.667 29.3813 138.044 28.1494 140.883 26.5111H141.02L138.721 31.788C136.616 32.7722 134.273 33.1405 131.929 33.1405C121.291 33.1405 114.719 27.1461 114.719 17.4117C114.719 8.00738 121.291 1.77808 130.532 1.77808C133.27 1.77808 136.065 2.27337 138.721 2.92107V8.13438H138.715Z" fill="black"/>
<path d="M156.953 29.1527C160.017 29.3369 162.674 28.2955 164.923 26.3778H165.061L162.705 32.4229H144.216V32.2896C146.521 31.4704 146.24 28.1177 146.24 26.0539V8.90271C146.24 6.80088 146.521 3.4735 144.216 2.61626V2.48926H152.806V2.62261C150.512 3.47985 150.832 6.85803 150.832 8.90906V28.7463L156.953 29.1527Z" fill="black"/>
<path d="M175.737 28.6318L181.457 29.1906C184.433 29.4573 187.541 28.5048 189.803 26.511H189.928L187.892 32.4736H169.127V32.3339C171.439 31.5084 171.163 28.1492 171.163 26.0982V8.93428C171.163 6.8515 171.439 3.53047 169.127 2.66053V2.52083H183.537C184.308 2.52083 185.066 2.60338 185.649 2.29858H185.793V7.61984H185.649C184.258 5.98156 182.409 5.81011 180.348 5.81011C178.763 5.81011 177.184 5.84186 175.749 6.12126V14.5794H181.106C181.839 14.5794 182.56 14.5794 183.099 14.3127H183.237V19.1387H183.099C182.378 17.8115 180.48 17.8496 179.095 17.8496H175.756V28.6318H175.737Z" fill="black"/>
<path d="M204.601 2.49561C210.679 2.49561 213.955 5.70233 213.955 9.83615C213.955 13.843 210.497 16.9862 206.794 17.8434L213.285 26.092C215.171 28.4542 218.003 30.8164 220.578 32.4547H216.437C214.043 32.4547 212.571 31.8641 211.224 30.1814L205.692 23.2981L201.525 16.891C205.159 16.3385 209.363 14.6621 209.363 10.3695C209.363 7.11202 206.569 5.19434 203.511 5.33404C202.471 5.37849 201.469 5.52454 200.441 5.70233V26.0603C200.441 28.1685 200.178 31.4768 202.471 32.2959V32.4293H193.881V32.2959C196.174 31.4768 195.874 28.124 195.874 26.0603V8.90271C195.874 6.80088 196.174 3.4735 193.881 2.61626V2.48926L204.601 2.49561Z" fill="black"/>
</svg>
